<svg width="114" height="24" viewBox="0 0 114 24" fill="none" xmlns="http://www.w3.org/2000/svg">
<path d="M3.49316 23H0.680664V1.67188H3.49316V23ZM10.7881 7.15039L10.876 9.14258C12.0869 7.61914 13.6689 6.85742 15.6221 6.85742C18.9717 6.85742 20.6611 8.74707 20.6904 12.5264V23H17.9805V12.5117C17.9707 11.3691 17.707 10.5244 17.1895 9.97754C16.6816 9.43066 15.8857 9.15723 14.8018 9.15723C13.9229 9.15723 13.1514 9.3916 12.4873 9.86035C11.8232 10.3291 11.3057 10.9443 10.9346 11.7061V23H8.22461V7.15039H10.7881ZM24.1182 14.9434C24.1182 12.5117 24.6943 10.5586 25.8467 9.08398C26.999 7.59961 28.5078 6.85742 30.373 6.85742C32.2285 6.85742 33.6982 7.49219 34.7822 8.76172V0.5H37.4922V23H35.002L34.8701 21.3008C33.7861 22.6289 32.2773 23.293 30.3438 23.293C28.5078 23.293 27.0088 22.541 25.8467 21.0371C24.6943 19.5332 24.1182 17.5703 24.1182 15.1484V14.9434ZM26.8281 15.251C26.8281 17.0479 27.1992 18.4541 27.9414 19.4697C28.6836 20.4854 29.709 20.9932 31.0176 20.9932C32.7363 20.9932 33.9912 20.2217 34.7822 18.6787V11.3984C33.9717 9.9043 32.7266 9.15723 31.0469 9.15723C29.7188 9.15723 28.6836 9.66992 27.9414 10.6953C27.1992 11.7207 26.8281 13.2393 26.8281 15.251ZM48.2881 23.293C46.1396 23.293 44.3916 22.5898 43.0439 21.1836C41.6963 19.7676 41.0225 17.8779 41.0225 15.5146V15.0166C41.0225 13.4443 41.3203 12.043 41.916 10.8125C42.5215 9.57227 43.3613 8.60547 44.4355 7.91211C45.5195 7.20898 46.6914 6.85742 47.9512 6.85742C50.0117 6.85742 51.6133 7.53613 52.7559 8.89355C53.8984 10.251 54.4697 12.1943 54.4697 14.7236V15.8516H43.7324C43.7715 17.4141 44.2256 18.6787 45.0947 19.6455C45.9736 20.6025 47.0869 21.0811 48.4346 21.0811C49.3916 21.0811 50.2021 20.8857 50.8662 20.4951C51.5303 20.1045 52.1113 19.5869 52.6094 18.9424L54.2646 20.2314C52.9365 22.2725 50.9443 23.293 48.2881 23.293ZM47.9512 9.08398C46.8574 9.08398 45.9395 9.48438 45.1973 10.2852C44.4551 11.0762 43.9961 12.1895 43.8203 13.625H51.7598V13.4199C51.6816 12.043 51.3105 10.9785 50.6465 10.2266C49.9824 9.46484 49.084 9.08398 47.9512 9.08398ZM65.1045 19.2646L71.1982 1.67188H74.2744L66.3643 23H63.874L55.9785 1.67188H59.04L65.1045 19.2646ZM82.6533 23.293C80.5049 23.293 78.7568 22.5898 77.4092 21.1836C76.0615 19.7676 75.3877 17.8779 75.3877 15.5146V15.0166C75.3877 13.4443 75.6855 12.043 76.2812 10.8125C76.8867 9.57227 77.7266 8.60547 78.8008 7.91211C79.8848 7.20898 81.0566 6.85742 82.3164 6.85742C84.377 6.85742 85.9785 7.53613 87.1211 8.89355C88.2637 10.251 88.835 12.1943 88.835 14.7236V15.8516H78.0977C78.1367 17.4141 78.5908 18.6787 79.46 19.6455C80.3389 20.6025 81.4521 21.0811 82.7998 21.0811C83.7568 21.0811 84.5674 20.8857 85.2314 20.4951C85.8955 20.1045 86.4766 19.5869 86.9746 18.9424L88.6299 20.2314C87.3018 22.2725 85.3096 23.293 82.6533 23.293ZM82.3164 9.08398C81.2227 9.08398 80.3047 9.48438 79.5625 10.2852C78.8203 11.0762 78.3613 12.1895 78.1855 13.625H86.125V13.4199C86.0469 12.043 85.6758 10.9785 85.0117 10.2266C84.3477 9.46484 83.4492 9.08398 82.3164 9.08398ZM95.6611 3.3125V7.15039H98.6201V9.24512H95.6611V19.0742C95.6611 19.709 95.793 20.1875 96.0566 20.5098C96.3203 20.8223 96.7695 20.9785 97.4043 20.9785C97.7168 20.9785 98.1465 20.9199 98.6934 20.8027V23C97.9805 23.1953 97.2871 23.293 96.6133 23.293C95.4023 23.293 94.4893 22.9268 93.874 22.1943C93.2588 21.4619 92.9512 20.4219 92.9512 19.0742V9.24512H90.0654V7.15039H92.9512V3.3125H95.6611ZM111.027 18.7959C111.027 18.0635 110.749 17.4971 110.192 17.0967C109.646 16.6865 108.684 16.335 107.307 16.042C105.939 15.749 104.851 15.3975 104.04 14.9873C103.239 14.5771 102.644 14.0889 102.253 13.5225C101.872 12.9561 101.682 12.2822 101.682 11.501C101.682 10.2021 102.229 9.10352 103.322 8.20508C104.426 7.30664 105.832 6.85742 107.541 6.85742C109.338 6.85742 110.793 7.32129 111.906 8.24902C113.029 9.17676 113.591 10.3633 113.591 11.8086H110.866C110.866 11.0664 110.549 10.4268 109.914 9.88965C109.289 9.35254 108.498 9.08398 107.541 9.08398C106.555 9.08398 105.783 9.29883 105.227 9.72852C104.67 10.1582 104.392 10.7197 104.392 11.4131C104.392 12.0674 104.65 12.5605 105.168 12.8926C105.686 13.2246 106.618 13.542 107.966 13.8447C109.323 14.1475 110.422 14.5088 111.262 14.9287C112.102 15.3486 112.722 15.8564 113.122 16.4521C113.532 17.0381 113.737 17.7559 113.737 18.6055C113.737 20.0215 113.171 21.1592 112.038 22.0186C110.905 22.8682 109.436 23.293 107.629 23.293C106.359 23.293 105.236 23.0684 104.26 22.6191C103.283 22.1699 102.517 21.5449 101.96 20.7441C101.413 19.9336 101.14 19.0596 101.14 18.1221H103.85C103.898 19.0303 104.26 19.7529 104.934 20.29C105.617 20.8174 106.516 21.0811 107.629 21.0811C108.654 21.0811 109.475 20.876 110.09 20.4658C110.715 20.0459 111.027 19.4893 111.027 18.7959Z" fill="white"/>
</svg>
